<svg width="45" height="45" viewBox="0 0 45 45" fill="none" xmlns="http://www.w3.org/2000/svg">
<circle cx="22.5" cy="22.5" r="22.5" fill="#2E4989"/>
<path d="M10 16.1667C10 15.3268 10.3292 14.5214 10.9153 13.9275C11.5013 13.3336 12.2962 13 13.125 13H31.875C32.7038 13 33.4987 13.3336 34.0847 13.9275C34.6708 14.5214 35 15.3268 35 16.1667V28.8333C35 29.6732 34.6708 30.4786 34.0847 31.0725C33.4987 31.6664 32.7038 32 31.875 32H13.125C12.2962 32 11.5013 31.6664 10.9153 31.0725C10.3292 30.4786 10 29.6732 10 28.8333V16.1667ZM13.125 14.5833C12.7106 14.5833 12.3132 14.7501 12.0201 15.0471C11.7271 15.344 11.5625 15.7467 11.5625 16.1667V16.5103L22.5 23.1602L33.4375 16.5103V16.1667C33.4375 15.7467 33.2729 15.344 32.9799 15.0471C32.6868 14.7501 32.2894 14.5833 31.875 14.5833H13.125ZM33.4375 18.3564L26.0812 22.8293L33.4375 27.4162V18.3564ZM33.3844 29.2434L24.5719 23.7477L22.5 25.0064L20.4281 23.7477L11.6156 29.2418C11.7044 29.5788 11.9005 29.8766 12.1734 30.089C12.4463 30.3014 12.7809 30.4166 13.125 30.4167H31.875C32.2189 30.4167 32.5533 30.3018 32.8262 30.0896C33.0991 29.8775 33.2953 29.5801 33.3844 29.2434ZM11.5625 27.4162L18.9188 22.8293L11.5625 18.3564V27.4162Z" fill="white"/>
</svg>
