<svg width="47" height="45" viewBox="0 0 47 45" fill="none" xmlns="http://www.w3.org/2000/svg">
<ellipse cx="23.5" cy="22.5" rx="23.5" ry="22.5" fill="#2E4989"/>
<path d="M24.5337 14.4663C24.2389 14.1716 23.7611 14.1716 23.4663 14.4663L18.6633 19.2693C18.3686 19.5641 18.3686 20.0419 18.6633 20.3367C18.9581 20.6314 19.4359 20.6314 19.7307 20.3367L24 16.0673L28.2693 20.3367C28.5641 20.6314 29.0419 20.6314 29.3367 20.3367C29.6314 20.0419 29.6314 19.5641 29.3367 19.2693L24.5337 14.4663ZM23.2453 31C23.2453 31.4168 23.5832 31.7547 24 31.7547C24.4168 31.7547 24.7547 31.4168 24.7547 31H23.2453ZM24 15H23.2453V31H24H24.7547V15H24Z" fill="white"/>
</svg>
