<svg width="45" height="45" viewBox="0 0 45 45" fill="none" xmlns="http://www.w3.org/2000/svg">
<circle cx="22.5" cy="22.5" r="22.5" fill="#2E4989"/>
<path d="M31.3476 13.6344C30.1965 12.4774 28.8255 11.5602 27.3145 10.9362C25.8036 10.3122 24.1829 9.99397 22.5471 10.0001C15.6928 10.0001 10.1067 15.5594 10.1005 22.3844C10.1005 24.5703 10.6749 26.6969 11.7595 28.5797L10 35L16.5984 33.2781C18.423 34.2691 20.4686 34.7876 22.5471 34.7859H22.5534C29.4092 34.7859 34.9937 29.2266 35 22.3954C35.0014 20.7673 34.6793 19.1551 34.0522 17.6515C33.4251 16.148 32.5069 14.7827 31.3476 13.6344ZM22.5471 32.6891C20.6937 32.6876 18.8747 32.1912 17.2796 31.2516L16.9029 31.0266L12.9884 32.0484L14.0338 28.2469L13.7889 27.8547C12.7527 26.2146 12.2047 24.3157 12.2084 22.3782C12.2084 16.7126 16.8496 12.0907 22.5534 12.0907C23.9122 12.0883 25.2581 12.3536 26.5134 12.8715C27.7687 13.3893 28.9087 14.1494 29.8675 15.1079C30.8295 16.0628 31.5922 17.1978 32.1115 18.4474C32.6309 19.6971 32.8967 21.0367 32.8936 22.3891C32.8874 28.075 28.2462 32.6891 22.5471 32.6891ZM28.2211 24.9797C27.9118 24.825 26.3847 24.0766 26.0974 23.9704C25.8118 23.8688 25.603 23.8157 25.399 24.125C25.1902 24.4328 24.5938 25.1344 24.4149 25.336C24.2359 25.5438 24.0507 25.5672 23.74 25.4141C23.4307 25.2578 22.4278 24.9328 21.2412 23.875C20.3152 23.0547 19.6952 22.0391 19.51 21.7313C19.3311 21.4219 19.4927 21.2563 19.6481 21.1016C19.7847 20.9641 19.9573 20.7391 20.1127 20.561C20.2696 20.3829 20.3214 20.2516 20.4235 20.0454C20.5255 19.836 20.4768 19.6579 20.3999 19.5032C20.3214 19.3485 19.7015 17.8219 19.4393 17.2063C19.1882 16.5985 18.9324 16.6829 18.7409 16.6751C18.562 16.6641 18.3532 16.6641 18.1445 16.6641C17.9868 16.6681 17.8317 16.7045 17.6889 16.7709C17.546 16.8373 17.4184 16.9323 17.3142 17.0501C17.0285 17.3594 16.2296 18.1079 16.2296 19.6344C16.2296 21.161 17.344 22.6282 17.5009 22.836C17.6548 23.0438 19.6889 26.1672 22.8108 27.511C23.5485 27.8313 24.1292 28.0203 24.5828 28.1641C25.3283 28.4016 26.0017 28.3656 26.5385 28.2891C27.1349 28.1985 28.3764 27.5391 28.6386 26.8157C28.896 26.0907 28.896 25.4719 28.8175 25.3422C28.7406 25.211 28.5318 25.1344 28.2211 24.9797Z" fill="white"/>
</svg>
